<?xml version="1.0" standalone="no"?>
<!DOCTYPE svg PUBLIC "-//W3C//DTD SVG 20010904//EN"
 "http://www.w3.org/TR/2001/REC-SVG-20010904/DTD/svg10.dtd">
<svg version="1.0" xmlns="http://www.w3.org/2000/svg"
 width="260.000000pt" height="260.000000pt" viewBox="0 0 260.000000 260.000000"
 preserveAspectRatio="xMidYMid meet">
<metadata>
Created by potrace 1.11, written by Peter Selinger 2001-2013
</metadata>
<g transform="translate(0.000000,260.000000) scale(0.100000,-0.100000)"
fill="#000000" stroke="none">
<path d="M0 1300 l0 -1300 1300 0 1300 0 0 1300 0 1300 -1300 0 -1300 0 0
-1300z m2480 0 l0 -1180 -1180 0 -1180 0 0 1180 0 1180 1180 0 1180 0 0 -1180z"/>
<path d="M537 1720 c-127 -32 -207 -144 -230 -319 -22 -177 21 -339 112 -424
56 -52 105 -71 186 -72 119 0 215 73 267 203 19 50 22 75 22 207 0 169 -13
222 -79 308 -60 78 -182 121 -278 97z m117 -124 c74 -31 116 -132 116 -281 0
-195 -75 -309 -191 -290 -74 13 -117 69 -139 183 -14 68 -9 202 10 263 15 54
51 102 90 121 42 22 70 22 114 4z"/>
<path d="M1148 1720 c-95 -18 -178 -105 -197 -205 -11 -58 -5 -65 55 -65 46 0
56 8 73 62 23 72 103 112 175 88 81 -26 100 -113 46 -207 -16 -28 -106 -130
-199 -225 -154 -159 -169 -177 -173 -213 l-3 -40 278 -3 277 -2 0 42 c0 73 0
72 -181 78 l-162 5 131 136 c82 86 140 156 158 190 105 208 -47 404 -278 359z"/>
<path d="M1755 1724 c-113 -28 -180 -97 -205 -208 -13 -57 -6 -66 50 -66 46 0
55 7 78 61 34 79 94 110 172 89 74 -20 100 -100 60 -188 -12 -26 -87 -113
-199 -230 -163 -171 -179 -191 -183 -227 l-3 -40 278 -3 277 -2 0 38 c0 20 -7
48 -16 60 -15 21 -21 22 -176 22 l-162 0 136 138 c166 168 192 213 193 323 0
67 -3 81 -30 125 -39 63 -108 102 -191 108 -33 3 -68 3 -79 0z"/>
<path d="M2159 1065 c-69 -38 -55 -143 21 -160 38 -8 84 17 100 55 16 39 -1
85 -41 105 -34 18 -47 18 -80 0z"/>
</g>
</svg>
