<?xml version="1.0" standalone="no"?>
<!DOCTYPE svg PUBLIC "-//W3C//DTD SVG 20010904//EN"
 "http://www.w3.org/TR/2001/REC-SVG-20010904/DTD/svg10.dtd">
<svg version="1.0" xmlns="http://www.w3.org/2000/svg"
 width="256.000000pt" height="256.000000pt" viewBox="0 0 256.000000 256.000000"
 preserveAspectRatio="xMidYMid meet">
<metadata>
Created by potrace 1.11, written by Peter Selinger 2001-2013
</metadata>
<g transform="translate(0.000000,256.000000) scale(0.100000,-0.100000)"
fill="#000000" stroke="none">
<path d="M0 1280 l0 -1280 1280 0 1280 0 0 1280 0 1280 -1280 0 -1280 0 0
-1280z m2440 0 l0 -1160 -1160 0 -1160 0 0 1160 0 1160 1160 0 1160 0 0 -1160z"/>
<path d="M535 1691 c-150 -39 -235 -182 -235 -396 0 -242 112 -398 284 -399
34 0 79 6 100 13 59 20 129 91 162 164 28 60 29 67 29 222 0 155 -1 162 -28
221 -32 69 -94 136 -148 158 -45 19 -125 27 -164 17z m108 -115 c78 -32 120
-131 120 -281 0 -203 -85 -320 -209 -286 -49 13 -76 40 -106 106 -20 44 -23
65 -23 180 0 124 1 133 30 190 24 49 38 64 75 83 51 26 69 27 113 8z"/>
<path d="M1133 1690 c-23 -5 -55 -16 -71 -24 -46 -24 -98 -91 -112 -144 -7
-26 -14 -55 -17 -64 -3 -13 5 -19 32 -24 49 -9 82 7 90 46 10 44 50 88 94 101
49 15 113 -2 140 -38 28 -35 28 -110 0 -166 -12 -23 -100 -121 -195 -218 -168
-171 -174 -179 -174 -218 l0 -41 265 0 265 0 0 43 c0 24 -5 48 -12 55 -8 8
-59 12 -165 12 -84 0 -153 3 -153 7 0 3 51 58 113 122 173 177 202 230 195
351 -3 52 -10 76 -30 108 -47 70 -167 112 -265 92z"/>
<path d="M1723 1690 c-109 -23 -176 -96 -197 -217 -5 -30 -3 -33 30 -39 51 -9
78 7 92 54 23 76 101 115 177 90 76 -26 100 -111 55 -198 -13 -25 -99 -121
-196 -221 -168 -171 -174 -178 -174 -218 l0 -41 265 0 265 0 0 43 c0 24 -5 48
-12 55 -8 8 -59 12 -165 12 -84 0 -153 3 -153 6 0 3 56 65 125 136 150 157
185 216 185 315 0 35 -6 78 -14 96 -39 93 -167 151 -283 127z"/>
<path d="M2133 1045 c-34 -14 -43 -31 -43 -79 0 -69 89 -97 136 -42 13 15 24
37 24 49 0 56 -63 94 -117 72z"/>
</g>
</svg>
